<?xml version="1.0" standalone="no"?><svg xmlns="http://www.w3.org/2000/svg" viewBox="0 0 1440 320"><path fill=" #ff0000 " fill-opacity="1" d="M0,288L13.3,288C26.7,288,53,288,80,266.7C106.7,245,133,203,160,170.7C186.7,139,213,117,240,133.3C266.7,149,293,203,320,202.7C346.7,203,373,149,400,133.3C426.7,117,453,139,480,176C506.7,213,533,267,560,261.3C586.7,256,613,192,640,192C666.7,192,693,256,720,256C746.7,256,773,192,800,170.7C826.7,149,853,171,880,192C906.7,213,933,235,960,208C986.7,181,1013,107,1040,69.3C1066.7,32,1093,32,1120,42.7C1146.7,53,1173,75,1200,117.3C1226.7,160,1253,224,1280,256C1306.7,288,1333,288,1360,261.3C1386.7,235,1413,181,1427,154.7L1440,128L1440,0L1426.7,0C1413.3,0,1387,0,1360,0C1333.3,0,1307,0,1280,0C1253.3,0,1227,0,1200,0C1173.3,0,1147,0,1120,0C1093.3,0,1067,0,1040,0C1013.3,0,987,0,960,0C933.3,0,907,0,880,0C853.3,0,827,0,800,0C773.3,0,747,0,720,0C693.3,0,667,0,640,0C613.3,0,587,0,560,0C533.3,0,507,0,480,0C453.3,0,427,0,400,0C373.3,0,347,0,320,0C293.3,0,267,0,240,0C213.3,0,187,0,160,0C133.3,0,107,0,80,0C53.3,0,27,0,13,0L0,0Z"></path></svg>